<?xml version="1.0" standalone="no"?>
<!DOCTYPE svg PUBLIC "-//W3C//DTD SVG 20010904//EN"
 "http://www.w3.org/TR/2001/REC-SVG-20010904/DTD/svg10.dtd">
<svg version="1.0" xmlns="http://www.w3.org/2000/svg"
 width="500.000000pt" height="500.000000pt" viewBox="0 0 500.000000 500.000000"
 preserveAspectRatio="xMidYMid meet">
<metadata>
Created by potrace 1.14, written by Peter Selinger 2001-2017
</metadata>
<g transform="translate(0.000000,500.000000) scale(0.100000,-0.100000)"
fill="#000000" stroke="none">
<path d="M1757 4489 c-86 -20 -152 -69 -187 -139 -42 -83 -21 -213 66 -398 19
-41 34 -75 34 -77 0 -2 14 -27 31 -56 38 -65 48 -54 -141 -160 -281 -157 -375
-254 -428 -444 -15 -53 -30 -81 -61 -115 -94 -101 -179 -250 -216 -375 -43
-149 -55 -400 -27 -545 6 -30 14 -67 17 -81 15 -74 73 -226 121 -317 106 -202
257 -377 454 -527 36 -28 67 -52 70 -55 3 -3 12 -9 22 -15 22 -14 141 -92 154
-102 10 -8 25 -17 90 -54 19 -10 51 -29 72 -41 63 -36 329 -167 415 -205 204
-87 500 -192 592 -209 16 -3 32 -7 37 -10 5 -3 20 -8 35 -10 15 -3 59 -12 98
-20 136 -29 323 -38 436 -22 94 13 234 88 289 155 66 79 90 112 90 121 0 6 4
12 9 14 27 11 163 346 187 463 1 6 9 37 17 70 26 99 72 351 82 440 3 28 8 61
10 75 9 47 18 133 32 300 10 119 10 568 1 634 -6 38 -3 58 12 92 29 62 26 91
-10 112 -32 19 -38 28 -46 81 -18 108 -117 388 -156 436 -5 6 -26 37 -47 70
-106 164 -247 256 -471 309 -104 24 -158 29 -389 36 -11 0 -11 4 2 18 46 50 1
82 -138 99 -116 15 -452 8 -595 -11 -43 -6 -105 -16 -128 -21 -12 -3 -32 -7
-44 -10 -42 -9 -124 -39 -153 -55 -82 -47 -95 -56 -95 -62 0 -5 -5 -8 -11 -8
-18 0 -4 177 21 249 21 62 60 143 101 206 10 17 21 37 25 45 3 8 9 22 14 31
29 56 -34 92 -165 95 -49 1 -107 -2 -128 -7z m198 -63 c18 -13 18 -14 -3 -25
-26 -14 -62 1 -62 24 0 19 40 20 65 1z m1272 -574 c11 -7 17 -26 14 -48 -1
-16 -35 -23 -54 -13 -18 10 -15 48 5 61 16 10 20 10 35 0z m50 -38 c-9 -9 -28
6 -21 18 4 6 10 6 17 -1 6 -6 8 -13 4 -17z m465 -605 c15 -20 17 -30 8 -55 -8
-24 -17 -30 -42 -32 -34 -3 -68 21 -68 48 0 28 37 67 61 65 13 -1 31 -13 41
-26z m-1413 -543 c12 -25 11 -31 -7 -55 -34 -45 -102 -23 -102 33 0 58 83 75
109 22z"/>
</g>
</svg>
